# xmcd
#
# Track frame offsets:
# 150
# 15774
# 30480
# 44935
# 55508
# 66539
# 80393
# 98193
# 117358
# 132701
# 144725
# 157228
# 174859
# 186789
#
# Disc length: 2681 seconds
#
#
# Revision: 0
# Processed by: cddbd v1.5.1PL2 Copyright (c) Steve Scherf et al.
# Submitted via: FreeRIP 2.92 
#
DISCID=c30a770e
DTITLE=Tião Carreiro e Pardinho - As Melhores de Tião Carreiro e Pardinho
DYEAR=2005
DGENRE=Sertanejo
TTITLE0=Faca Que Não Corta
TTITLE1=Cavalo Que Pula
TTITLE2=Um Pouco de Minha Vida
TTITLE3=Falou e Disse
TTITLE4=Empreitada Perigosa
TTITLE5=Amargurado
TTITLE6=Boiadeiro de Palavra
TTITLE7=Hoje eu Não Posso Ir
TTITLE8=Ara Po
TTITLE9=Viola Cabocla
TTITLE10=Cavalo Enxuto
TTITLE11=Menino da Porteira
TTITLE12=Fim da Picada
TTITLE13=Chora Viola
EXTD=De 1971 a 1973
EXTT0=
EXTT1=
EXTT2=
EXTT3=
EXTT4=
EXTT5=
EXTT6=
EXTT7=
EXTT8=
EXTT9=
EXTT10=
EXTT11=
EXTT12=
EXTT13=
PLAYORDER=
